<?xml version="1.0" standalone="no"?>
<!DOCTYPE svg PUBLIC "-//W3C//DTD SVG 20010904//EN"
 "http://www.w3.org/TR/2001/REC-SVG-20010904/DTD/svg10.dtd">
<svg version="1.0" xmlns="http://www.w3.org/2000/svg"
 width="512.000000pt" height="512.000000pt" viewBox="0 0 512.000000 512.000000"
 preserveAspectRatio="xMidYMid meet">
<metadata>
Created by potrace 1.14, written by Peter Selinger 2001-2017
</metadata>
<g transform="translate(0.000000,512.000000) scale(0.100000,-0.100000)"
fill="#000000" stroke="none">
<path d="M415 5110 c-108 -22 -230 -95 -295 -176 -32 -40 -72 -107 -83 -136
-3 -10 -7 -10 -20 1 -16 13 -17 -132 -17 -2170 1 -2330 -1 -2221 48 -2330 67
-147 217 -263 374 -289 42 -6 770 -10 2154 -10 1825 0 2098 2 2148 15 209 55
353 210 385 415 9 56 11 617 9 2180 l-3 2105 -23 59 c-63 168 -181 275 -367
334 -30 10 -4263 11 -4310 2z"/>
</g>
</svg>
